<svg width="52" height="36" viewBox="0 0 52 36" fill="none" xmlns="http://www.w3.org/2000/svg">
<path d="M9.43449 7.6797V33.1078C9.43449 33.1078 4.2627 34.1852 4.2627 28.9057C4.2627 25.781 4.2627 16.2994 4.2627 12.205V10.6966C4.2627 10.3734 4.37045 10.0501 4.4782 9.72687C4.80144 8.75715 6.20211 7.57195 9.43449 7.6797Z" stroke="#204ECF" stroke-miterlimit="10"/>
<path d="M1 12.4209H4.37076" stroke="#204ECF" stroke-miterlimit="10"/>
<path d="M1.35352 12.4209V20.0709H4.26267" stroke="#204ECF" stroke-miterlimit="10"/>
<path d="M4.26267 28.4755H1.35352V23.9502H4.26267" stroke="#204ECF" stroke-miterlimit="10"/>
<path d="M9.43457 7.68066H11.0508H34.8626V33.1087H9.43457" stroke="#204ECF" stroke-miterlimit="10"/>
<path d="M11.4824 7.68027V2.93945H21.2873L21.3195 4.18077C21.3195 4.18077 19.1324 4.23241 19.2401 7.78802" stroke="#204ECF" stroke-miterlimit="10"/>
<path d="M21.2869 4.23238C21.2869 4.23238 20.9513 1.00043 22.0264 1.00061C24.4999 1.00104 25.5967 1 26.6742 1C27.5035 1 27.7517 1.43098 27.7517 1.96971C27.7517 2.1852 27.7517 2.29295 27.7517 2.61619V3.90912V4.23238H21.2869Z" stroke="#204ECF" stroke-miterlimit="10"/>
<path d="M29.6915 7.68047C29.6915 7.68047 29.7666 4.07338 27.5039 4.18113" stroke="#204ECF" stroke-miterlimit="10"/>
<path d="M9.43457 11.1289H26.243V12.8528V29.5535H9.43457" stroke="#204ECF" stroke-miterlimit="10"/>
<path d="M34.8628 12.6367H26.2432" stroke="#204ECF" stroke-miterlimit="10"/>
<path d="M26.2432 17.8076H34.8628" stroke="#204ECF" stroke-miterlimit="10"/>
<path d="M26.2432 22.7646H34.8628" stroke="#204ECF" stroke-miterlimit="10"/>
<path d="M26.2432 27.9365H34.8628" stroke="#204ECF" stroke-miterlimit="10"/>
<path d="M16.1145 14.4678H20.2089L18.8082 17.5924H23.0103L15.899 26.4276L16.1145 25.4578L17.2998 20.9325H12.7744L16.1145 14.4678Z" stroke="#204ECF" stroke-miterlimit="10"/>
<path d="M34.8625 7.68C34.8625 7.68 34.5393 5.95605 37.1252 5.95605C39.7111 5.95605 39.9266 7.68 39.9266 7.68V33.1081C39.9266 33.1081 40.0344 34.832 37.7717 34.832C35.4013 34.832 34.8625 34.7243 34.8625 33.1081" stroke="#204ECF" stroke-miterlimit="10"/>
<path d="M44.236 11.8818H39.8184H44.236Z" stroke="#204ECF" stroke-miterlimit="10"/>
<path d="M44.2376 28.6914H39.9277" stroke="#204ECF" stroke-miterlimit="10"/>
<path d="M44.4658 11.6016V28.9172" stroke="#204ECF" stroke-miterlimit="10"/>
<path d="M39.9277 25.3506H44.2376" stroke="#204ECF" stroke-miterlimit="10"/>
<path d="M39.9277 22.0107H44.2376" stroke="#204ECF" stroke-miterlimit="10"/>
<path d="M40.0352 18.6709H44.2372" stroke="#204ECF" stroke-miterlimit="10"/>
<path d="M40.0352 15.2227H44.2372" stroke="#204ECF" stroke-miterlimit="10"/>
<path d="M44.2373 16.8389H50.1633C50.7021 16.8389 51.133 17.2698 51.133 17.8086V22.2262C51.133 22.7649 50.7021 23.1959 50.1633 23.1959H44.2373" stroke="#204ECF" stroke-miterlimit="10"/>
</svg>
