<svg width="52" height="52" viewBox="0 0 52 52" fill="none" xmlns="http://www.w3.org/2000/svg">
<path d="M1.00195 2.46973H4.82532V7.46957H1.29606" stroke="#204ECF" stroke-miterlimit="10" stroke-linecap="round" stroke-linejoin="round"/>
<path d="M4.82812 7.76514V6.72849V8.64747H8.35739V2.47119V1.58887H4.82812V3.05941" stroke="#204ECF" stroke-miterlimit="10" stroke-linecap="round" stroke-linejoin="round"/>
<path d="M8.38867 2.48361L14.5 2.49805C14.5 2.49805 19.0341 2.48361 19.0341 7.43222L19 12.998H39.1211M39.1211 12.998L39.1553 1M39.1211 12.998L39.1553 27.7051H44.1844V1" stroke="#204ECF" stroke-miterlimit="10" stroke-linecap="round" stroke-linejoin="round"/>
<path d="M44.2334 13.0566H50.9978" stroke="#204ECF" stroke-miterlimit="10" stroke-linecap="round" stroke-linejoin="round"/>
<path d="M44.2334 18.3535H50.9978" stroke="#204ECF" stroke-miterlimit="10" stroke-linecap="round" stroke-linejoin="round"/>
<path d="M1.00195 13.0371L13.5 12.998V22.7427H1.00195H18.9424H23.3539C23.3539 22.7427 28.0841 22.7427 28.6478 27.7425C28.6478 27.7425 28.8431 31.6826 28.8431 33.6713C28.8431 35.199 34.2409 34.8077 34.2409 34.8077" stroke="#204ECF" stroke-miterlimit="10" stroke-linecap="round" stroke-linejoin="round"/>
<path d="M18.9414 13.0566L19.0571 22.7577" stroke="#204ECF" stroke-miterlimit="10" stroke-linecap="round" stroke-linejoin="round"/>
<path d="M18.9414 18.3535L39.0708 18.6143" stroke="#204ECF" stroke-miterlimit="10" stroke-linecap="round" stroke-linejoin="round"/>
<path d="M1 17.998H13" stroke="#204ECF" stroke-miterlimit="10" stroke-linecap="round" stroke-linejoin="round"/>
<path d="M13.501 7.48145V13.0368V7.48145Z" stroke="#204ECF" stroke-miterlimit="10" stroke-linecap="round" stroke-linejoin="round"/>
<path d="M8.40918 7.48145H13.5016" stroke="#204ECF" stroke-miterlimit="10" stroke-linecap="round" stroke-linejoin="round"/>
<path d="M1.29492 27.7627H18.9412H22.4705C22.4705 27.7627 23.941 28.0568 23.941 29.8215C23.9177 31.323 23.941 34.8213 23.941 34.8213C23.941 34.8213 23.6099 38.6447 28.3156 39.2329H34.2347" stroke="#204ECF" stroke-miterlimit="10" stroke-linecap="round" stroke-linejoin="round"/>
<path d="M18.9414 44.5287V28.0586" stroke="#204ECF" stroke-miterlimit="10" stroke-linecap="round" stroke-linejoin="round"/>
<path d="M19.2344 44.8232H43.9392" stroke="#204ECF" stroke-miterlimit="10" stroke-linecap="round" stroke-linejoin="round"/>
<path d="M43.9404 44.8208V43.9385H47.4697V44.8208" stroke="#204ECF" stroke-miterlimit="10" stroke-linecap="round" stroke-linejoin="round"/>
<path d="M47.4697 44.8232V50.9995H43.9404V44.8232" stroke="#204ECF" stroke-miterlimit="10" stroke-linecap="round" stroke-linejoin="round"/>
<path d="M14 27.998V44.944C14 44.944 14 49.7007 19 49.998H44" stroke="#204ECF" stroke-miterlimit="10" stroke-linecap="round" stroke-linejoin="round"/>
<path d="M38.0586 27.7627H45.1171V31.292H39.235H38.0586V27.7627Z" stroke="#204ECF" stroke-miterlimit="10" stroke-linecap="round" stroke-linejoin="round"/>
<path d="M39.2354 34.53V31.5889V34.53Z" stroke="#204ECF" stroke-miterlimit="10" stroke-linecap="round" stroke-linejoin="round"/>
<path d="M37.7656 34.5303H39.2362H37.7656Z" stroke="#204ECF" stroke-miterlimit="10" stroke-linecap="round" stroke-linejoin="round"/>
<path d="M37.7675 34.5301V33.0596H34.2383V40.1182H37.7675V39.2358V34.5301Z" stroke="#204ECF" stroke-miterlimit="10" stroke-linecap="round" stroke-linejoin="round"/>
<path d="M43.9418 31.5889V34.53H45.7065V39.2357H37.7656" stroke="#204ECF" stroke-miterlimit="10" stroke-linecap="round" stroke-linejoin="round"/>
<path d="M45.7041 33.6455V34.5278V33.6455Z" stroke="#204ECF" stroke-miterlimit="10" stroke-linecap="round" stroke-linejoin="round"/>
<path d="M45.7041 40.4098V39.2334V40.4098Z" stroke="#204ECF" stroke-miterlimit="10" stroke-linecap="round" stroke-linejoin="round"/>
<path d="M48.9393 40.4121H45.7041H48.9393Z" stroke="#204ECF" stroke-miterlimit="10" stroke-linecap="round" stroke-linejoin="round"/>
<path d="M48.9443 33.6455V40.41V33.6455Z" stroke="#204ECF" stroke-miterlimit="10" stroke-linecap="round" stroke-linejoin="round"/>
<path d="M45.7041 33.6455H48.9393V34.5278H50.998" stroke="#204ECF" stroke-miterlimit="10" stroke-linecap="round" stroke-linejoin="round"/>
<path d="M49.2373 39.2334H51.0019" stroke="#204ECF" stroke-miterlimit="10" stroke-linecap="round" stroke-linejoin="round"/>
<path d="M47.4736 44.8232H51.0029" stroke="#204ECF" stroke-miterlimit="10" stroke-linecap="round" stroke-linejoin="round"/>
<path d="M47.4736 49.8203H51.0029" stroke="#204ECF" stroke-miterlimit="10" stroke-linecap="round" stroke-linejoin="round"/>
</svg>
