<svg width="150" height="112" viewBox="0 0 150 112" fill="none" xmlns="http://www.w3.org/2000/svg">
<path d="M111.358 78.25H1V94.8037V111.357H111.358V78.25Z" stroke="#204ECF" stroke-width="0.75" stroke-linecap="round" stroke-linejoin="round"/>
<path d="M111.358 1H1V34.1075H111.358V1Z" stroke="#204ECF" stroke-width="0.75" stroke-linecap="round" stroke-linejoin="round"/>
<path d="M38.5217 73.8359L148.88 73.8359V40.7285L38.5217 40.7285V73.8359Z" stroke="#204ECF" stroke-width="0.75" stroke-linecap="round" stroke-linejoin="round"/>
<path d="M95.9078 25.2784C100.784 25.2784 104.736 21.3257 104.736 16.4498C104.736 11.5738 100.784 7.62109 95.9078 7.62109C91.0318 7.62109 87.0791 11.5738 87.0791 16.4498C87.0791 21.3257 91.0318 25.2784 95.9078 25.2784Z" fill="#204ECF"/>
<path d="M95.9078 104.736C100.784 104.736 104.736 100.784 104.736 95.9078C104.736 91.0318 100.784 87.0791 95.9078 87.0791C91.0318 87.0791 87.0791 91.0318 87.0791 95.9078C87.0791 100.784 91.0318 104.736 95.9078 104.736Z" fill="#204ECF"/>
<path d="M53.9722 65.0069C58.8481 65.0069 62.8009 61.0542 62.8009 56.1783C62.8009 51.3023 58.8481 47.3496 53.9722 47.3496C49.0963 47.3496 45.1436 51.3023 45.1436 56.1783C45.1436 61.0542 49.0963 65.0069 53.9722 65.0069Z" fill="#204ECF"/>
</svg>
