<svg width="51" height="51" viewBox="0 0 51 51" fill="none" xmlns="http://www.w3.org/2000/svg">
<path d="M8.39429 13.0151H1V15.4799L3.46476 17.9446H8.39429V6.32503H1.35211V3.50816L3.46476 1.39551H10.5069L12.6196 3.50816V6.32503H17.197" stroke="#204ECF" stroke-miterlimit="10" stroke-linecap="round" stroke-linejoin="round"/>
<path d="M8.74414 17.9449H10.5047L12.9695 16.5364V13.3675H17.5469V9.84638V2.45209C17.5469 2.45209 18.6625 0.457098 20.7158 2.45209V9.49427L19.1477 9.84638L17.5469 9.49427" stroke="#204ECF" stroke-miterlimit="10" stroke-linecap="round" stroke-linejoin="round"/>
<path d="M11.9141 8.43848V10.9032" stroke="#204ECF" stroke-miterlimit="10" stroke-linecap="round" stroke-linejoin="round"/>
<path d="M1 36.96H50.2953V43.2979H1V41.5374V36.96Z" stroke="#204ECF" stroke-miterlimit="10" stroke-linecap="round" stroke-linejoin="round"/>
<path d="M5.92952 36.96L1 41.5374" stroke="#204ECF" stroke-miterlimit="10" stroke-linecap="round" stroke-linejoin="round"/>
<path d="M11.2116 36.96L4.52148 43.2979" stroke="#204ECF" stroke-miterlimit="10" stroke-linecap="round" stroke-linejoin="round"/>
<path d="M16.1397 36.96L9.80176 42.9458" stroke="#204ECF" stroke-miterlimit="10" stroke-linecap="round" stroke-linejoin="round"/>
<path d="M21.4244 36.96L14.7344 43.2979" stroke="#204ECF" stroke-miterlimit="10" stroke-linecap="round" stroke-linejoin="round"/>
<path d="M26.3526 36.96L20.0146 43.2979" stroke="#204ECF" stroke-miterlimit="10" stroke-linecap="round" stroke-linejoin="round"/>
<path d="M31.6364 36.96L24.9463 43.2979" stroke="#204ECF" stroke-miterlimit="10" stroke-linecap="round" stroke-linejoin="round"/>
<path d="M36.5655 36.96L30.2275 43.2979" stroke="#204ECF" stroke-miterlimit="10" stroke-linecap="round" stroke-linejoin="round"/>
<path d="M41.8414 36.96L35.1514 43.2979" stroke="#204ECF" stroke-miterlimit="10" stroke-linecap="round" stroke-linejoin="round"/>
<path d="M46.7716 36.96L40.4336 43.2979" stroke="#204ECF" stroke-miterlimit="10" stroke-linecap="round" stroke-linejoin="round"/>
<path d="M50.2938 38.3672L45.3643 43.2967" stroke="#204ECF" stroke-miterlimit="10" stroke-linecap="round" stroke-linejoin="round"/>
<path d="M2.76074 33.085V36.9582" stroke="#204ECF" stroke-miterlimit="10" stroke-linecap="round" stroke-linejoin="round"/>
<path d="M6.28223 36.9598V33" stroke="#204ECF" stroke-miterlimit="10" stroke-linecap="round" stroke-linejoin="round"/>
<path d="M45.0137 36.9582V33.085" stroke="#204ECF" stroke-miterlimit="10" stroke-linecap="round" stroke-linejoin="round"/>
<path d="M48.5352 36.9597L48.5 33" stroke="#204ECF" stroke-miterlimit="10" stroke-linecap="round" stroke-linejoin="round"/>
<path d="M4.52109 33.4396C6.46573 33.4396 8.04218 31.8632 8.04218 29.9186C8.04218 27.9739 6.46573 26.3975 4.52109 26.3975C2.57645 26.3975 1 27.9739 1 29.9186C1 31.8632 2.57645 33.4396 4.52109 33.4396Z" stroke="#204ECF" stroke-miterlimit="10" stroke-linecap="round" stroke-linejoin="round"/>
<path d="M46.774 33.4396C48.7187 33.4396 50.2951 31.8632 50.2951 29.9186C50.2951 27.9739 48.7187 26.3975 46.774 26.3975C44.8294 26.3975 43.2529 27.9739 43.2529 29.9186C43.2529 31.8632 44.8294 33.4396 46.774 33.4396Z" stroke="#204ECF" stroke-miterlimit="10" stroke-linecap="round" stroke-linejoin="round"/>
<path d="M18.957 28.1582V36.6088V28.1582Z" stroke="#204ECF" stroke-miterlimit="10" stroke-linecap="round" stroke-linejoin="round"/>
<path d="M32.3389 28.1582V36.9609" stroke="#204ECF" stroke-miterlimit="10" stroke-linecap="round" stroke-linejoin="round"/>
<path d="M18.6045 28.1582H32.6888" stroke="#204ECF" stroke-miterlimit="10" stroke-linecap="round" stroke-linejoin="round"/>
<path d="M15.7871 23.2289V28.1584H35.8573L35.5052 21.1162H15.7871V23.2289ZM15.7871 23.2289H10.1533L11.9139 27.8063L10.5054 31.6795H18.956" stroke="#204ECF" stroke-miterlimit="10" stroke-linecap="round" stroke-linejoin="round"/>
<path d="M35.8584 23.2266H41.1401L39.3795 27.804L41.1401 31.6772H32.6895" stroke="#204ECF" stroke-miterlimit="10" stroke-linecap="round" stroke-linejoin="round"/>
<path d="M8.04218 43.2979L1 50.34H5.92952L10.5069 45.7626L12.9717 43.2979" stroke="#204ECF" stroke-miterlimit="10" stroke-linecap="round" stroke-linejoin="round"/>
<path d="M38.3209 43.2979L31.6309 50.34H36.5604L41.1378 45.7626L43.6026 43.2979" stroke="#204ECF" stroke-miterlimit="10" stroke-linecap="round" stroke-linejoin="round"/>
<path d="M14.5 50.5L10.5039 46.1143" stroke="#204ECF" stroke-miterlimit="10" stroke-linecap="round" stroke-linejoin="round"/>
<path d="M45.0163 50.3396L40.791 46.1143L45.0163 50.3396Z" stroke="#204ECF" stroke-miterlimit="10" stroke-linecap="round" stroke-linejoin="round"/>
<path d="M12.9736 43.2979L19.5 50.5H17H14.5" stroke="#204ECF" stroke-miterlimit="10" stroke-linecap="round" stroke-linejoin="round"/>
<path d="M43.2529 43.2979L49.943 50.34H45.0135" stroke="#204ECF" stroke-miterlimit="10" stroke-linecap="round" stroke-linejoin="round"/>
<path d="M40.787 46.1147L38.3223 43.2979" stroke="#204ECF" stroke-miterlimit="10" stroke-linecap="round" stroke-linejoin="round"/>
<path d="M17.5 13.5V14.5V15.5L18.9341 17.3043H20.5645" stroke="#204ECF" stroke-miterlimit="10" stroke-linecap="round" stroke-linejoin="round"/>
<path d="M18.957 17.5947V21.1158" stroke="#204ECF" stroke-miterlimit="10" stroke-linecap="round" stroke-linejoin="round"/>
<path d="M32.3387 21.1134V17.2402H30.5781" stroke="#204ECF" stroke-miterlimit="10" stroke-linecap="round" stroke-linejoin="round"/>
<path d="M32.3383 17.2399L34.0989 15.1273V6.32455C34.0989 6.32455 34.0989 4.21189 31.282 4.564L23.8877 4.91611" stroke="#204ECF" stroke-miterlimit="10" stroke-linecap="round" stroke-linejoin="round"/>
<path d="M23.8894 5.27002C23.8894 7.73478 24.0979 9.84743 22.1766 9.84743C20.6131 9.84743 20.7203 7.38267 20.7203 5.27002C20.7203 2.80526 20.6543 1.04492 22.1288 1.04492C23.8262 1.04492 23.8894 2.80526 23.8894 5.27002Z" stroke="#204ECF" stroke-miterlimit="10" stroke-linecap="round" stroke-linejoin="round"/>
<path d="M30.9299 4.5651C30.9299 4.5651 31.282 1.39612 29.1693 1.04401C27.0567 0.691905 27.4088 4.5651 27.4088 4.5651C27.7609 0.339796 25.2961 1.04401 25.2961 1.04401C23.8877 1.04401 23.8877 2.45245 23.8877 4.5651C23.8877 7.02987 23.8877 9.14252 25.6482 9.14252L29.8735 9.49463C29.8735 9.49463 26.7046 9.84674 26.0004 12.3115C26.0004 12.3115 25.2961 15.4805 25.6482 17.241" stroke="#204ECF" stroke-miterlimit="10" stroke-linecap="round" stroke-linejoin="round"/>
<path d="M34.0996 6.32617H40.0855" stroke="#204ECF" stroke-miterlimit="10" stroke-linecap="round" stroke-linejoin="round"/>
<path d="M40.083 1.39551V19.7052H43.252L49.9421 13.0151V1.39551H40.083Z" stroke="#204ECF" stroke-miterlimit="10" stroke-linecap="round" stroke-linejoin="round"/>
<path d="M34.0996 13.0146H40.0855" stroke="#204ECF" stroke-miterlimit="10" stroke-linecap="round" stroke-linejoin="round"/>
</svg>
