<svg width="52" height="51" viewBox="0 0 52 51" fill="none" xmlns="http://www.w3.org/2000/svg">
<path d="M5.21556 15.7227H1V20.1438H5.21556V15.7227Z" stroke="#204ECF" stroke-miterlimit="10" stroke-linecap="round" stroke-linejoin="round"/>
<path d="M5.21556 32.9961H1V37.4173H5.21556V32.9961Z" stroke="#204ECF" stroke-miterlimit="10" stroke-linecap="round" stroke-linejoin="round"/>
<path d="M20.3288 15.7227H16.1133V20.1438H20.3288V15.7227Z" stroke="#204ECF" stroke-miterlimit="10" stroke-linecap="round" stroke-linejoin="round"/>
<path d="M35.7517 15.7227H31.5361V20.1438H35.7517V15.7227Z" stroke="#204ECF" stroke-miterlimit="10" stroke-linecap="round" stroke-linejoin="round"/>
<path d="M35.7517 32.9961H31.5361V37.4173H35.7517V32.9961Z" stroke="#204ECF" stroke-miterlimit="10" stroke-linecap="round" stroke-linejoin="round"/>
<path d="M20.3291 17.7793C20.3291 17.7793 32.2561 19.0131 33.5927 32.9964" stroke="#204ECF" stroke-miterlimit="10" stroke-linecap="round" stroke-linejoin="round"/>
<path d="M18.026 31.7222V24.0713L12.6863 33.9969C12.1038 35.0308 12.2009 36.2715 12.7834 37.3054C13.7542 38.9596 15.0964 41.3617 14.9993 42.499H12.5" stroke="#204ECF" stroke-miterlimit="10" stroke-linecap="round" stroke-linejoin="round"/>
<path d="M13.75 50.1665V42.4551H24.6488" stroke="#204ECF" stroke-miterlimit="10" stroke-linecap="round" stroke-linejoin="round"/>
<path d="M23.208 42.4551V50.1665" stroke="#204ECF" stroke-miterlimit="10" stroke-linecap="round" stroke-linejoin="round"/>
<path d="M21.5 42.499C21.5 42.499 22.026 39.4086 24.188 36.8524C24.8366 36.1366 24.8366 35.1142 24.2961 34.2962L18.0264 24.0713" stroke="#204ECF" stroke-miterlimit="10" stroke-linecap="round" stroke-linejoin="round"/>
<path d="M18.4113 35.8225C18.6384 35.8225 18.8226 35.6384 18.8226 35.4113C18.8226 35.1841 18.6384 35 18.4113 35C18.1841 35 18 35.1841 18 35.4113C18 35.6384 18.1841 35.8225 18.4113 35.8225Z" stroke="#204ECF" stroke-miterlimit="10"/>
<path d="M23.619 32.7706H46.9588C48.7068 32.7706 50.249 31.5368 50.4547 29.7888C50.5575 29.0691 50.6603 28.2466 50.6603 27.3212C50.6603 22.9 50.6603 9.73923 50.6603 4.80394C50.6603 2.74757 49.118 1.10247 47.0617 0.999652C46.7532 0.999652 46.5476 0.999652 46.1363 0.999652C43.9771 0.999652 36.7798 0.999652 30.4051 0.999652C24.75 0.999652 20.0204 0.999652 20.0204 0.999652C20.0204 0.999652 18.2725 0.861013 18.3753 4.70113C18.3753 8.81387 18.2725 15.7027 18.2725 15.7027" stroke="#204ECF" stroke-miterlimit="10" stroke-linecap="round" stroke-linejoin="round"/>
<path d="M38.6306 1.12305V10.5824H30.0967V1.12305" stroke="#204ECF" stroke-miterlimit="10" stroke-linecap="round" stroke-linejoin="round"/>
<path d="M44.7998 25.0791V32.615" stroke="#204ECF" stroke-miterlimit="10" stroke-linecap="round" stroke-linejoin="round"/>
<path d="M44.8002 22.8172C45.0842 22.8172 45.3143 22.5871 45.3143 22.3032C45.3143 22.0192 45.0842 21.7891 44.8002 21.7891C44.5163 21.7891 44.2861 22.0192 44.2861 22.3032C44.2861 22.5871 44.5163 22.8172 44.8002 22.8172Z" stroke="#204ECF" stroke-miterlimit="10"/>
<path d="M5.3174 17.7793H16.1133C3.36385 20.1441 3.1582 32.9964 3.1582 32.9964" stroke="#204ECF" stroke-miterlimit="10" stroke-linecap="round" stroke-linejoin="round"/>
<path d="M20.3291 17.7793H31.5363" stroke="#204ECF" stroke-miterlimit="10" stroke-linecap="round" stroke-linejoin="round"/>
</svg>
