<?xml version="1.0" encoding="utf-8"?>
<!-- Generator: Adobe Illustrator 23.0.1, SVG Export Plug-In . SVG Version: 6.00 Build 0)  -->
<svg version="1.1" id="Layer_11" xmlns="http://www.w3.org/2000/svg" xmlns:xlink="http://www.w3.org/1999/xlink" x="0px" y="0px"
	 viewBox="0 0 2001 1148.9" style="enable-background:new 0 0 2001 1148.9;" xml:space="preserve">
<style type="text/css">
	.st0{fill:#F34D77;}
	.st1{fill:#B0AABD;}
	.st2{fill:none;stroke:#BFE6FF;stroke-width:6;stroke-miterlimit:10;}
	.st3{fill:#B3EFFC;}
	.st4{fill:#62E1FC;}
	.st5{fill:#EBB1CB;}
	.st6{fill:#2F42CA;}
	.st7{fill:#D0E5F7;}
	.st8{fill:#89BEEC;}
	.st9{fill:#808DBF;}
	.st10{fill:#9691A1;}
	.st11{opacity:0.5;fill:#9691A1;}
	.st12{fill:#DDDDDD;}
	.st13{fill:#5C5E69;}
	.st14{fill:#B5B5B5;}
	.st15{fill:#898C9C;}
	.st16{fill:#FFFFFF;}
	.st17{fill:#ADADAD;}
	.st18{opacity:0.36;fill:#171059;}
	.st19{fill:#B7706A;}
	.st20{fill:#D698B8;}
	.st21{fill:#171059;}
	.st22{fill:#FF5E7E;}
	.st23{fill:none;stroke:#7D7D7D;stroke-width:7;stroke-miterlimit:10;}
	.st24{fill:#FF8A8B;}
	.st25{fill:#4C4A52;}
	.st26{fill:#A4412D;}
	.st27{fill:#573F67;}
	.st28{fill:#37253D;}
	.st29{fill:#755780;}
	.st30{fill:#02085E;}
	.st31{fill:#74717D;}
</style>
<g>
	<path class="st0" d="M1633.1,334.7h-168.7c-21.4,0-38.7-17.3-38.7-38.7V55c0-21.4,17.3-38.7,38.7-38.7h168.7
		c21.4,0,38.7,17.3,38.7,38.7v241C1671.8,317.4,1654.5,334.7,1633.1,334.7z"/>
	<path class="st1" d="M1691,423h-292.7c-29.3,0-53-23.7-53-53V136.2c0-29.3,23.7-53,53-53H1691c29.3,0,53,23.7,53,53V370
		C1744,399.3,1720.3,423,1691,423z"/>
	<line class="st2" x1="575.5" y1="510.2" x2="784.8" y2="510.2"/>
	<circle class="st3" cx="575.5" cy="510.2" r="18"/>
	<circle class="st4" cx="575.5" cy="510.2" r="8.3"/>
	
		<ellipse transform="matrix(0.7071 -0.7071 0.7071 0.7071 -328.089 499.4231)" class="st5" cx="438.8" cy="645.8" rx="44.4" ry="44.4"/>
	<line class="st2" x1="845.5" y1="307.7" x2="845.5" y2="459.6"/>
	<circle class="st4" cx="845.5" cy="307.7" r="9"/>
	<rect x="228.4" y="833.6" class="st2" width="227.8" height="178.3"/>
	<rect x="766.8" y="402.5" class="st0" width="181.6" height="181.6"/>
	<path class="st4" d="M949.8,783H585.3v-18.6c0-76,61.6-137.5,137.5-137.5h227V783z"/>
	<rect x="441.1" y="773.4" class="st6" width="285.2" height="265.2"/>
	<path class="st7" d="M1637.5,321.2c-23.4-1.3-23.4,11.3-45.6,10.7c-27.5-0.8-31-20.1-56-20.3c-24.3-0.1-27.1,18.7-51.8,18.6
		c-25.6-0.2-30.8-20.5-54.8-18.6c-20.3,1.7-21.6,16.6-41.3,17.4c-23.1,1-28.8-19.3-51.5-18.3c-19.7,0.9-20.2,16.4-41.1,20
		c-28.8,4.8-38-22.9-67.8-19.4c-25.1,3-34.2,24.9-51.8,18.8c-8.6-3-11.1-9.9-25.6-15.2c-8.3-3-15.6-3.8-20.3-3.9c0,0,0,0,0,0
		c-0.8,0.1-1.5,0.1-2.3,0.2c-70.1,7.2-124.9,66.4-124.9,138.5v701.2h703.7V322.7c-4.2,2.1-10.9,4.8-19.4,6.1
		C1666.4,331.8,1657.3,322.3,1637.5,321.2z"/>
	<path class="st7" d="M139.8,1011.7h1568.5v139.2H0.6v0C0.6,1074,63,1011.7,139.8,1011.7z"/>
	<path class="st7" d="M1003,446.1c-0.8,76.2-62.8,137.8-139.2,137.8h-97v501.2h447.2v-639H1003z"/>
	<rect x="1131.3" y="310.7" class="st7" width="281.5" height="87.3"/>
	<path class="st7" d="M1131.3,310.7c103-22.7,221.5-61.8,342.6-130.1c24.3-13.7,47.4-27.8,69.2-42.2c22.7,14.3,46.3,28.4,70.9,42.2
		c118.3,66.5,233.8,112,339.2,143.4c-81.6,275.6-163.1,551.3-244.7,826.9c-51.2-33.8-102.4-67.5-153.6-101.3
		C1413.6,803.3,1272.4,557,1131.3,310.7z"/>
	<path class="st8" d="M1543,138.4v1010.8l165.4,1.7L1953.1,324c-97.9-29.2-206.8-71.3-319.8-132.8
		C1601.5,174,1571.5,156.3,1543,138.4z"/>
	<path class="st9" d="M1032.5,1012.5H766.8V649.7h265.8c69.4,0,125.7,56.3,125.7,125.7v111.4
		C1158.3,956.2,1102,1012.5,1032.5,1012.5z"/>
	<rect x="509.4" y="773.7" class="st9" width="391.5" height="238.8"/>
	<rect x="625.8" y="773.4" class="st10" width="268" height="231.5"/>
	<rect x="625.8" y="987.5" class="st11" width="268" height="17.4"/>
	<rect x="567.3" y="791.4" class="st10" width="9.6" height="166.1"/>
	<rect x="546.3" y="833.4" class="st10" width="9.6" height="80.3"/>
	<rect x="681.6" y="709.7" class="st10" width="135.8" height="72.9"/>
	<rect x="494.5" y="859.5" class="st12" width="42.2" height="21.9"/>
	<rect x="366.3" y="690.2" class="st12" width="144" height="321.8"/>
	<circle class="st13" cx="1280.1" cy="525.2" r="131.2"/>
	<path class="st14" d="M1280.1,344.8c-99.6,0-180.4,80.8-180.4,180.4s80.8,180.4,180.4,180.4c99.6,0,180.4-80.8,180.4-180.4
		S1379.8,344.8,1280.1,344.8z M1280.1,627.2c-56.3,0-102-45.7-102-102c0-56.3,45.7-102,102-102c56.3,0,102,45.7,102,102
		C1382.1,581.5,1336.5,627.2,1280.1,627.2z"/>
	<circle class="st15" cx="1280.1" cy="525.2" r="95.3"/>
	
		<ellipse transform="matrix(0.3827 -0.9239 0.9239 0.3827 305.0272 1506.9159)" class="st12" cx="1280.1" cy="525.2" rx="37.1" ry="37.1"/>
	<circle class="st0" cx="1266.1" cy="525.7" r="11.7"/>
	<circle class="st6" cx="1294.7" cy="525.7" r="11.7"/>
	<path class="st6" d="M1290.2,471.9L1290.2,471.9c-2,2.2-5.4,2.4-7.6,0.4l-21.8-19.7c-2.2-2-2.4-5.4-0.4-7.6l0,0
		c2-2.2,5.4-2.4,7.6-0.4l21.8,19.7C1292,466.3,1292.2,469.7,1290.2,471.9z"/>
	<path class="st0" d="M1245.5,479.7L1245.5,479.7c0.2,3-2,5.5-4.9,5.8l-29.3,2.3c-3,0.2-5.5-2-5.8-4.9l0,0c-0.2-3,2-5.5,4.9-5.8
		l29.3-2.3C1242.7,474.5,1245.3,476.8,1245.5,479.7z"/>
	<path class="st6" d="M1229.4,515.8L1229.4,515.8c2.1,2.1,2.1,5.5,0,7.6l-20.8,20.8c-2.1,2.1-5.5,2.1-7.6,0l0,0
		c-2.1-2.1-2.1-5.5,0-7.6l20.8-20.8C1223.9,513.7,1227.4,513.7,1229.4,515.8z"/>
	<path class="st0" d="M1236.3,553.8L1236.3,553.8c3,0,5.4,2.4,5.3,5.4l-0.2,29.4c0,3-2.4,5.4-5.4,5.3l0,0c-3,0-5.4-2.4-5.3-5.4
		l0.2-29.4C1230.9,556.2,1233.3,553.8,1236.3,553.8z"/>
	<path class="st6" d="M1271.9,581.9L1271.9,581.9c2-2.1,5.4-2.2,7.6-0.2l21.2,20.3c2.1,2,2.2,5.4,0.2,7.6l0,0
		c-2,2.1-5.4,2.2-7.6,0.2l-21.2-20.3C1269.9,587.4,1269.9,584,1271.9,581.9z"/>
	<path class="st0" d="M1309.5,569.7L1309.5,569.7c0.2-3,2.7-5.2,5.7-5.1l29.3,1.6c3,0.2,5.2,2.7,5.1,5.7l0,0c-0.2,3-2.7,5.2-5.7,5.1
		l-29.3-1.6C1311.6,575.2,1309.4,572.7,1309.5,569.7z"/>
	<path class="st6" d="M1331.8,536.5L1331.8,536.5c-2.2-2-2.2-5.4-0.2-7.6l20.2-21.3c2-2.2,5.4-2.2,7.6-0.2l0,0
		c2.2,2,2.2,5.4,0.2,7.6l-20.2,21.3C1337.4,538.5,1334,538.5,1331.8,536.5z"/>
	<path class="st0" d="M1325,491.7L1325,491.7c-3,0.2-5.5-2.1-5.7-5.1l-1.6-29.3c-0.2-3,2.1-5.5,5.1-5.7l0,0c3-0.2,5.5,2.1,5.7,5.1
		l1.6,29.3C1330.2,488.9,1328,491.5,1325,491.7z"/>
	<rect x="160.9" y="948.4" class="st7" width="67.5" height="67.5"/>
	<path class="st12" d="M881.5,987.2H588.4c-9,0-16.3-7.3-16.3-16.3V789.8c0-9,7.3-16.3,16.3-16.3h293.1V987.2z"/>
	<path class="st12" d="M567.3,957.7L567.3,957.7c-9,0-16.3-7.3-16.3-16.3V807.8c0-9,7.3-16.3,16.3-16.3l0,0V957.7z"/>
	<path class="st12" d="M546.3,913.8L546.3,913.8c-9,0-16.3-7.3-16.3-16.3v-47.7c0-9,7.3-16.3,16.3-16.3l0,0V913.8z"/>
	<path class="st12" d="M890.5,987.2h18.6c32.6,0,59.1-26.4,59.1-59.1v-95.6c0-32.6-26.4-59.1-59.1-59.1h-18.6"/>
	<path class="st12" d="M915.3,1011.7H609l0,0c0-10.7,8.7-19.4,19.4-19.4h267.5C906.6,992.3,915.3,1000.9,915.3,1011.7L915.3,1011.7z
		"/>
	<path class="st11" d="M915.3,1011.7H632.3l0,0c0-10.7,8.7-19.4,19.4-19.4h244.1C906.6,992.3,915.3,1000.9,915.3,1011.7
		L915.3,1011.7z"/>
	<rect x="681.5" y="713.8" class="st12" width="135.8" height="53.2"/>
	<path class="st12" d="M817.4,709.8H681.5l0,0c0-10.8,8.8-19.6,19.6-19.6h96.7C808.6,690.2,817.4,699,817.4,709.8L817.4,709.8z"/>
	<circle class="st10" cx="721.3" cy="740.7" r="19.4"/>
	<circle class="st10" cx="776.3" cy="740.7" r="19.4"/>
	<path class="st11" d="M908.7,987.6H587.5V791.8c0-9.9,8.1-18,18-18h303.2c33,0,59.8,26.8,59.8,59.8v94.1
		C968.5,960.8,941.7,987.6,908.7,987.6z"/>
	<path class="st11" d="M727.7,690.2h71.2c10,0,18.2,8.1,18.2,18.2v64.7H705.2v-60.4C705.2,700.3,715.2,690.2,727.7,690.2z"/>
	<path class="st10" d="M863.2,807.2H607.8c-3,0-5.3-2.4-5.3-5.3l0,0c0-3,2.4-5.3,5.3-5.3h255.4c3,0,5.3,2.4,5.3,5.3l0,0
		C868.6,804.8,866.2,807.2,863.2,807.2z"/>
	<path class="st10" d="M863.2,826.9H607.8c-3,0-5.3-2.4-5.3-5.3l0,0c0-3,2.4-5.3,5.3-5.3h255.4c3,0,5.3,2.4,5.3,5.3l0,0
		C868.6,824.5,866.2,826.9,863.2,826.9z"/>
	<path class="st10" d="M863.2,847.7H607.8c-3,0-5.3-2.4-5.3-5.3l0,0c0-3,2.4-5.3,5.3-5.3h255.4c3,0,5.3,2.4,5.3,5.3l0,0
		C868.6,845.3,866.2,847.7,863.2,847.7z"/>
	<path class="st10" d="M863.2,870.2H607.8c-3,0-5.3-2.4-5.3-5.3l0,0c0-3,2.4-5.3,5.3-5.3h255.4c3,0,5.3,2.4,5.3,5.3l0,0
		C868.6,867.8,866.2,870.2,863.2,870.2z"/>
	<path class="st10" d="M863.2,891.6H607.8c-3,0-5.3-2.4-5.3-5.3l0,0c0-3,2.4-5.3,5.3-5.3h255.4c3,0,5.3,2.4,5.3,5.3l0,0
		C868.6,889.2,866.2,891.6,863.2,891.6z"/>
	<path class="st10" d="M863.2,914.6H607.8c-3,0-5.3-2.4-5.3-5.3l0,0c0-3,2.4-5.3,5.3-5.3h255.4c3,0,5.3,2.4,5.3,5.3l0,0
		C868.6,912.2,866.2,914.6,863.2,914.6z"/>
	<path class="st10" d="M863.2,938.8H607.8c-3,0-5.3-2.4-5.3-5.3l0,0c0-3,2.4-5.3,5.3-5.3h255.4c3,0,5.3,2.4,5.3,5.3l0,0
		C868.6,936.4,866.2,938.8,863.2,938.8z"/>
	<path class="st10" d="M863.2,960.8H607.8c-3,0-5.3-2.4-5.3-5.3l0,0c0-3,2.4-5.3,5.3-5.3h255.4c3,0,5.3,2.4,5.3,5.3l0,0
		C868.6,958.4,866.2,960.8,863.2,960.8z"/>
	
		<ellipse transform="matrix(0.4005 -0.9163 0.9163 0.4005 113.5649 1904.9565)" class="st5" cx="1512.6" cy="865.7" rx="18.6" ry="18.6"/>
	
		<ellipse transform="matrix(0.1452 -0.9894 0.9894 0.1452 -873.9697 944.2464)" class="st5" cx="109.5" cy="977.9" rx="14.3" ry="14.3"/>
	<rect x="1408" y="946.7" class="st16" width="86.9" height="86.9"/>
	<rect x="1565.9" y="981.3" class="st16" width="52.3" height="52.3"/>
	<rect x="909.7" y="573" class="st9" width="44.2" height="36.3"/>
	<path class="st17" d="M925,552.4l-26.7,26.7l9.8,36.5l36.5,9.8l26.7-26.7l-9.8-36.5L925,552.4z M945.7,600.4
		c-6.1,6.1-15.9,6.1-22,0s-6.1-15.9,0-22c6.1-6.1,15.9-6.1,22,0C951.8,584.5,951.8,594.3,945.7,600.4z"/>
	<path class="st12" d="M913.9,568.5c-11.5,11.5-11.5,30.2,0,41.7c11.5,11.5,30.2,11.5,41.7,0c11.5-11.5,11.5-30.2,0-41.7
		C944.1,557,925.4,557,913.9,568.5z M945.7,600.4c-6.1,6.1-15.9,6.1-22,0s-6.1-15.9,0-22c6.1-6.1,15.9-6.1,22,0
		C951.8,584.5,951.8,594.3,945.7,600.4z"/>
	<path class="st18" d="M1440.6,1034.4h-253.1c-18.6-55.4-38-132.6-41.6-226.1c-4.8-124.1,20.1-224.6,41.6-288.6
		c0-7.5,0.8-47.6,33.1-79.9c20.5-20.5,48.7-33.1,79.9-33.1h27c62.4,0,113.1,50.6,113.1,113.1V1034.4z"/>
	<path class="st0" d="M1117.4,560.4c-10.5,23.1-21,46.3-31.5,69.4c13,6.8,26,13.5,39,20.3l3.4-60.4
		C1124.6,579.9,1121,570.2,1117.4,560.4z"/>
	<path class="st19" d="M1195.7,1014.9l-5.5-23.6c-7.5,1.4-15,2.8-22.5,4.1c2.9,10.6,5.8,21.3,8.6,31.9L1195.7,1014.9z"/>
	<path class="st19" d="M1289.1,1011.9l-7.9-31.5c-8.4,2.4-16.8,4.8-25.1,7.1c2.4,11.4,4.8,22.8,7.1,34.1L1289.1,1011.9z"/>
	<path class="st20" d="M1104.8,744.8c3.4,44.8,6.8,89.6,10.1,134.4c0.2,4,0.9,8.8,2.3,14.1c1.1,4.3,2.5,8.1,3.9,11.3
		c10.7,36.4,21.4,72.8,32.1,109.1l60.2-12.4c-21-77.2-30-109-32.5-116.3c-0.4-1-1.8-5.1-2.9-10.8c-1.5-7.5-1.7-13.3-1.7-14.8
		c-0.3-9.4-4.3-54.8-10.7-123C1145.3,739.1,1125.1,741.9,1104.8,744.8z"/>
	<path class="st5" d="M1148.7,746.4c28.3,89.4,56.6,178.9,84.9,268.3c21.2-6.8,42.4-13.5,63.6-20.3
		c-27.8-85.1-55.5-170.3-83.3-255.4C1192.2,741.6,1170.4,744,1148.7,746.4z"/>
	<path class="st0" d="M1234.2,772.3l-141.8-8.4l22.7-197.2c0.8-7.2,6.9-12.7,14.2-12.7H1232c8.2,0,14.8,6.9,14.3,15.1L1234.2,772.3z
		"/>
	<path class="st19" d="M1170.2,526.9h-13.2c-10,0-18.2-8.1-18.2-18.2v-27.5c0-17.3,14.1-31.4,31.4-31.4l0,0
		c17.3,0,31.4,14.1,31.4,31.4v14.3C1201.6,512.8,1187.5,526.9,1170.2,526.9z"/>
	<polygon class="st19" points="1156,519.9 1174.8,562.3 1199.5,546.9 1181.1,501.9 	"/>
	
		<rect x="1159.4" y="544.5" transform="matrix(0.9715 -0.2369 0.2369 0.9715 -97.3589 296.0972)" class="st16" width="48.4" height="17.4"/>
	<path class="st21" d="M1210.8,1035.6h78.7c3.2,0,5.5-3,4.6-6.1l-5-17.5l-37.1,1.5l-42.3,16.1
		C1206.5,1030.8,1207.4,1035.6,1210.8,1035.6z"/>
	<path class="st21" d="M1127.3,1035.6h68.7c2.8,0,4.8-2.7,4-5.3l-4.4-15.3l-32.4,1.3l-36.9,14.1
		C1123.5,1031.4,1124.3,1035.6,1127.3,1035.6z"/>
	<path class="st4" d="M1410.1,803.2L1410.1,803.2c-7.5,15-25.7,21-40.7,13.5l-342.6-171.6l27.1-54.2l342.6,171.6
		C1411.5,770,1417.6,788.2,1410.1,803.2z"/>
	<path class="st4" d="M941.6,557.6l0.5-6.5c0,0,28.5-20.1,62.9-13.3s43.7,37.4,43.7,37.4c10.7,10,23.1,20.2,37.3,30
		c4.4,3,8.8,5.9,13.1,8.6c-12.8,16.1-25.6,32.2-38.4,48.3c-4.6-1.9-10.5-3.9-17.4-5.2c-8.2-1.5-15.5-1.6-21-1.3
		c-5,3.3-13.6,7.8-24.8,8.4c-12,0.7-20.9-3.5-33-9.4c-9.2-4.5-22-11.9-35.6-23.9c0.4-2.6,0.7-5.1,1.1-7.7l41.9,5.4
		c15.2-3.8,26.2-16.9,27-32.1c0.7-13.7-7-26.8-19.6-33.1C966.6,561.3,954.1,559.4,941.6,557.6z"/>
	<path class="st19" d="M1098.3,681.2c0.6,8.3,3.6,13.3,5.3,15.8c1.2,1.6,2.4,2.9,3.4,3.9c2.1,2.2,5.6,5.5,10.5,8.3
		c2.4,1.4,3.8,1.9,4.7,2.1c2.3,0.7,4.2,0.8,5.3,0.9c6.9,0.4,17.5,0.2,18.3,0.2c-1.4-3.6-2.8-7.1-4.2-10.7
		C1127.2,694.9,1112.8,688,1098.3,681.2z"/>
	<path class="st22" d="M1246.6,566.7c2.1,62.1,2.2,108.1,0.7,121.2c-0.4,4-1.5,9.4-5.5,13.8c-4.7,5.1-11.1,6.4-14.5,7.1
		c-13,2.3-43.4,5.6-83.6,8.4c-2.4-7.5-4.9-15-7.3-22.5c35.4-5.9,61.1-10.3,69.5-11.5c1.6-0.2,5.9-0.8,8.4-4c2.5-3.2,2-7.5,1.9-8.7
		c-0.9-8.3-1-46.6-1-100.1c1.4-10.8,10.7-17.6,18.8-16.3C1239.7,555,1244.8,560.1,1246.6,566.7z"/>
	<path class="st19" d="M1050.5,652.5c-0.5,0.5-0.5,1.4-0.4,2.7c0.4,3.1,1.5,5.2,3.2,9c1.5,3.3,1.4,3.4,2,4.1c1.5,2,3.4,2.8,5.6,3.9
		c7,3.3,10.6,5.4,15.7,6.8c0.8,0.2,2.2,0.6,4,0.5c2.4-0.2,4.1-1.1,4.6-1.3c1.2-0.7,2-1.5,2.5-2c-5.8-3.7-11.6-7.3-17.4-11
		c-0.5-2.6-1.2-4.8-1.7-6.3c-0.7-2.2-1.1-2.9-1.7-3.5c-0.5-0.5-1.1-0.9-4.7-1.8c-2.6-0.6-2.3-0.4-7.9-1.2
		C1052.2,652,1051.2,651.8,1050.5,652.5z"/>
	<path class="st21" d="M1146.4,460.1c2.4,8.9,7.4,23.2,18.6,37.7c8.8,11.5,18.4,19,25.3,23.6c4.1-2.1,11-6.5,15.8-14.6
		c8.7-14.7,7.2-36.1-5.6-48.4c-8.3-8-18.4-9.2-21.4-9.6C1161.1,446.9,1148.5,458.2,1146.4,460.1z"/>
	
		<ellipse transform="matrix(0.9239 -0.3827 0.3827 0.9239 -87.891 495.8294)" class="st21" cx="1202.4" cy="468.8" rx="16.6" ry="16.6"/>
	<path class="st23" d="M1680.5,240.5c34.3-18.6,73.2-13.1,92,9.3c21.1,25.2,10.2,63.7-0.8,83.5c-14.1,25.3-31.3,25.3-43,45.6
		c-10.3,17.8-14.8,48.5,12.7,104.6"/>
	<circle class="st0" cx="649.6" cy="931.9" r="47.3"/>
	<path class="st24" d="M670.1,940.6c-7.8,14.9-32,18.4-47.5,8.5c-11.5-7.4-21.2-24.1-14.4-38.9c6.8-14.8,25.8-18.6,38.9-14.4
		C665.6,901.5,678.3,924.9,670.1,940.6z"/>
	<path class="st25" d="M485.8,976.5L485.8,976.5c2.6,1.5,5.9,0.7,7.4-1.9L559,862.7c1.5-2.6,0.7-5.9-1.9-7.4l0,0
		c-2.6-1.5-5.9-0.7-7.4,1.9l-65.8,111.9C482.3,971.6,483.2,974.9,485.8,976.5z"/>
	<path class="st26" d="M510.2,902.4c3.1-2.5,6-4.7,8.6-6.8c0.8-0.6,1.8-1.4,3.4-1.7c0.5-0.1,1.6-0.2,5,0.9c1.6,0.5,1.8,0.7,7.4,3.3
		c2.1,1,2.9,1.3,3.3,2.3c0.1,0.3,0.6,1.4-0.4,3.8c-2,5.1-6.8,7.6-8.1,8.3c-1.6,0.8-2.9,1.3-4.2,1.7c-1.7,0.5-3.5,1-6.7,1.4
		c-2.6,0.4-6.1,0.7-10.3,0.8C509,911.7,509.6,907.1,510.2,902.4z"/>
	<path class="st27" d="M427.1,828.2l23.3,72.5c16.3-1.1,32.7-2.2,49-3.3c5.2-0.2,10.1,1.9,12.4,5.8c3.7,6.4-1.2,14.9-6.3,18.3
		c-2.8,1.9-5.5,2.2-6.4,2.3c-15.1,1.8-60.5,2.5-63.1,2.5c-8.4-28.3-16.8-56.7-25.2-85L427.1,828.2z"/>
	<path class="st21" d="M291.3,971.1l-9.2-2.4c-2.1-0.5-4.2,0.5-5.1,2.4l-16.9,36.2c-1,2.2,0.6,4.7,3,4.7l23.7,0.3v-0.5
		c0-3-2.1-5.6-5-6.3l-3.6-0.8l18.4-17.6L291.3,971.1z"/>
	<path class="st28" d="M451.4,981.2c-5.9,11.1-11.8,22.3-17.6,33.4c-48.1-3.9-96.3-7.8-144.4-11.6c0.1-12.3,0.3-24.5,0.4-36.8
		C343.6,971.2,397.5,976.2,451.4,981.2z"/>
	<path class="st26" d="M422.5,804.9c4-2.5,6.7-5.1,8.3-7c1.6-1.8,2-2.7,2.2-3.1c1.2-3-0.1-5.3-0.8-9.4c0,0-0.4-2.7,0-8.3
		c0.2-3.2,1.3-9.3,7.1-16.9c10.3,2.4,20.5,4.8,30.8,7.1l1.5,45l-39.8,18.8L422.5,804.9z"/>
	<path class="st27" d="M391,811.7c0,0-39.4,39.4-51.4,56.3s-24,37.9-30.8,52.1s-8.6,30-2.3,38.6s120,53.6,120,53.6
		c9.2,4.5,20.2,1.6,25.9-6.4c5.2-7.3,4.8-17.5-1.1-24.8c-25.6-15.1-51.3-30.3-76.9-45.4c6,1.4,12,2.8,18,4.1
		c4-15,8.1-27.1,11.3-35.6c8.6-23.3,20.2-48.2,20.3-48.4l0,0L391,811.7z"/>
	<path class="st29" d="M391,811.7c5.9-7.7,15.3-11.4,24-9.4c8.7,2,13.3,8.9,14.3,10.5c1.1,1.1,2.3,2.5,3.4,4.5
		c1.7,3.2,2.1,6.1,2.3,7.1c2.4,18.2,15.1,80.3,17.5,88.6c0.9,3.4,2,6.7,2,6.7s1.1,3.3,2.4,6.7c1.8,4.8,14.8,29.6,34.1,62.8
		c3.2,4.9,3.7,10.9,1.1,15.8c-3.3,6.2-11.3,9.4-18.8,7c-26.9-45.6-46.4-78.9-49.7-84.5c-0.5-0.8-1.6-2.8-2.8-5.5
		c-2.3-5.1-3.4-9.3-3.8-10.8C414.7,903,404.6,864.4,391,811.7z"/>
	<path class="st26" d="M476.4,1011.9h44.6c-0.2-0.6-0.4-1.5-1-2.4c-1.3-2-3.6-3.7-10.8-4.9c-3.5-0.6-8.3-1.1-14.3-0.8
		C488.8,1006.5,482.6,1009.2,476.4,1011.9z"/>
	<path class="st26" d="M412.8,890.4"/>
	<path class="st30" d="M441.6,756c-8.3,6.1-11.3,18.6-11.5,19.4c0,0-1.3,5.5,0.3,12.8c0.3,1.3,0.8,3.1,2.3,4.1
		c0.8,0.5,1.4,0.5,2.3,0.7c4.1,0.8,7,4,7.8,4.8c1.9,2,1.9,3.1,3.4,3.6c1.8,0.6,3.6-0.3,4.5-0.8c5.3-2.4,8.5,0.4,13.7-0.6
		c9.5-1.8,14.6-14.2,15.8-13.4c0.4,0.3-0.1,1.8,0,1.7c2.9-7.2,5.8-14.4,8.7-21.7C473.4,750.9,452.7,747.9,441.6,756z"/>
	<path class="st31" d="M462.6,849.7l-15.9-5.2c-4-1.3-6.1-5.6-4.8-9.6l25.6-77.7c1.3-4,5.6-6.1,9.6-4.8l15.9,5.2
		c4,1.3,6.1,5.6,4.8,9.6l-25.6,77.7C470.9,848.9,466.6,851,462.6,849.7z"/>
	<path class="st25" d="M489.8,791.5l-16.6-5.5c-1.9-0.6-3-2.7-2.3-4.6l0.5-1.6c0.6-1.9,2.7-3,4.6-2.3l16.6,5.5L489.8,791.5z"/>
	<path class="st31" d="M461.6,785.5l-31.9-10.4c-1.6-0.5-2.5-2.3-2-3.9l0.5-1.7c0.5-1.6,2.3-2.5,3.9-2l31.9,10.4
		c1.6,0.5,2.5,2.3,2,3.9l-0.5,1.7C464.9,785.2,463.2,786.1,461.6,785.5z"/>
	<path class="st25" d="M624.2,920.3l-114-68c-1.7-1-2.2-3.2-1.2-4.8l0,0c1-1.7,3.2-2.2,4.8-1.2l114,68c1.7,1,2.2,3.2,1.2,4.8l0,0
		C628.1,920.8,625.9,921.3,624.2,920.3z"/>
	<path class="st7" d="M139.8,1011.7H796v139.2H0.6v0C0.6,1074,63,1011.7,139.8,1011.7z"/>
	<circle class="st4" cx="195" cy="922.8" r="26.2"/>
	<circle class="st12" cx="1734.5" cy="484.3" r="18.3"/>
	<path class="st12" d="M1754.8,642.1c-11.8,0.3-23.6,0.6-35.4,0.8c1.9-4.1,4.2-9.8,5.9-16.9c0.7-2.7,2-8.8,2.5-16.9
		c0.8-12.8,1.3-58.8,0.8-121.5c3.9,0,7.9,0,11.8,0c2.5,65.4,4.9,113.5,5.9,124.9c0.3,3.8,1,8.6,2.5,14.3
		C1750.7,633.6,1753.1,638.8,1754.8,642.1z"/>
	<path class="st12" d="M1651,587.8c-0.4,9.9,0.4,28.6,11.8,46.7c2.7,4.4,12.8,19.3,30.9,28.7c10,5.2,17.8,6.3,32.1,15.2
		c6.2,3.9,11,7.6,14.1,10.1c2.5-2,6.4-4.9,11.3-8.4c16-11.6,22.5-14.6,30.4-20.3c5.8-4.2,20.4-14.7,29.8-32.6c3.6-7,9.7-21.1,9-41.6
		c-13.4,38.2-36.8,60.5-54.6,57.4c-3.6-0.6-9.5-2.7-15.8-10.7c-0.5,0.8-4.3,6.1-11.3,6.8c-5.5,0.5-10.8-2.1-14.1-6.8
		c-9.3,10.3-17.7,12-21.4,12.4C1683.5,646.6,1659.9,624.5,1651,587.8z"/>
	<path class="st6" d="M1683.6,217.7c12.1,5.8,24.2,11.6,36.3,17.4c-2.6,6.8-5.3,13.5-7.9,20.3l-44.2-2.3
		C1673.1,241.3,1678.4,229.5,1683.6,217.7z"/>
	<path class="st8" d="M1683.6,217.7c12.1,5.8,24.2,11.6,36.3,17.4c-2.6,6.8-5.3,13.5-7.9,20.3l-44.2-2.3
		C1673.1,241.3,1678.4,229.5,1683.6,217.7z"/>
</g>
</svg>
