<svg width="30" height="40" viewBox="0 0 30 40" fill="none" xmlns="http://www.w3.org/2000/svg">
<path d="M15.0002 0.25C14.0419 0.25 13.0628 0.333334 12.0836 0.541667C6.33358 1.64583 1.75025 6.29167 0.666917 12.0417C-0.333083 17.4792 1.66692 22.4792 5.29192 25.7083C6.18775 26.5 6.66692 27.6042 6.66692 28.7708V33.5833C6.66692 35.875 8.54192 37.75 10.8336 37.75H11.4169C12.1461 39 13.4586 39.8333 15.0002 39.8333C16.5419 39.8333 17.8752 39 18.5836 37.75H19.1669C21.4586 37.75 23.3336 35.875 23.3336 33.5833V28.7708C23.3336 27.625 23.7919 26.5 24.6669 25.7292C27.6877 23.0625 29.5836 19.1667 29.5836 14.8333C29.5836 6.77083 23.0627 0.25 15.0002 0.25ZM16.0419 23.1667H13.9586V17.7708L10.1461 13.9792L11.6253 12.5L15.0002 15.875L18.3752 12.5L19.8544 13.9792L16.0419 17.7917V23.1667ZM18.1252 33.5833C18.1044 33.5833 18.0836 33.5625 18.0627 33.5625V33.5833H11.9377V33.5625C11.9169 33.5625 11.8961 33.5833 11.8752 33.5833C11.2919 33.5833 10.8336 33.125 10.8336 32.5417C10.8336 31.9583 11.2919 31.5 11.8752 31.5C11.8961 31.5 11.9169 31.5208 11.9377 31.5208V31.5H18.0627V31.5208C18.0836 31.5208 18.1044 31.5 18.1252 31.5C18.7086 31.5 19.1669 31.9583 19.1669 32.5417C19.1669 33.125 18.7086 33.5833 18.1252 33.5833ZM18.1252 29.4167H11.8752C11.2919 29.4167 10.8336 28.9583 10.8336 28.375C10.8336 27.7917 11.2919 27.3333 11.8752 27.3333H18.1252C18.7086 27.3333 19.1669 27.7917 19.1669 28.375C19.1669 28.9583 18.7086 29.4167 18.1252 29.4167Z" fill="#204ECF"/>
</svg>
