<svg width="42" height="41" viewBox="0 0 42 41" fill="none" xmlns="http://www.w3.org/2000/svg">
<path fill-rule="evenodd" clip-rule="evenodd" d="M11.2458 35.0644L35.8354 11.2995C37.2449 9.93729 37.2449 7.72872 35.8354 6.36651C34.426 5.00431 32.1407 5.00431 30.7313 6.36651L6.14165 30.1314C4.73217 31.4936 4.73217 33.7022 6.14165 35.0644C7.55113 36.4266 9.83635 36.4266 11.2458 35.0644ZM39.4307 2.89179C36.0356 -0.389462 30.5311 -0.389461 27.1359 2.89179L2.54634 26.6567C-0.848779 29.9379 -0.848779 35.2579 2.54634 38.5391C5.94145 41.8204 11.446 41.8204 14.8411 38.5391L39.4307 14.7742C42.8259 11.493 42.8259 6.17303 39.4307 2.89179ZM35.8582 29.7006L11.2686 5.93566C9.85916 4.57346 7.57394 4.57346 6.16446 5.93566C4.75498 7.29787 4.75498 9.50645 6.16446 10.8687L30.7541 34.6335C32.1635 35.9958 34.4488 35.9958 35.8582 34.6335C37.2677 33.2713 37.2677 31.0628 35.8582 29.7006ZM2.56914 2.46094C-0.825972 5.74218 -0.825971 11.0621 2.56915 14.3434L27.1588 38.1083C30.5539 41.3895 36.0584 41.3895 39.4536 38.1083C42.8487 34.827 42.8487 29.5071 39.4536 26.2258L14.8639 2.46094C11.4688 -0.820311 5.96426 -0.820312 2.56914 2.46094Z" fill="#204ECF"/>
</svg>
