<svg width="50" height="50" viewBox="0 0 50 50" fill="none" xmlns="http://www.w3.org/2000/svg">
<path d="M39.5833 6.25065H30.875C30 3.83398 27.7083 2.08398 25 2.08398C22.2917 2.08398 20 3.83398 19.125 6.25065H10.4167C10.125 6.25065 9.85417 6.27148 9.58333 6.33398C8.77083 6.50065 8.04167 6.91732 7.47917 7.47982C7.10417 7.85482 6.79167 8.31315 6.58333 8.81315C6.375 9.29232 6.25 9.83398 6.25 10.4173V39.584C6.25 40.1465 6.375 40.709 6.58333 41.209C6.79167 41.709 7.10417 42.1465 7.47917 42.5423C8.04167 43.1048 8.77083 43.5215 9.58333 43.6882C9.85417 43.7298 10.125 43.7507 10.4167 43.7507H39.5833C41.875 43.7507 43.75 41.8757 43.75 39.584V10.4173C43.75 8.12565 41.875 6.25065 39.5833 6.25065ZM21.4583 31.0007C20.6458 31.8132 19.3125 31.8132 18.5 31.0007L13.9792 26.4798C13.1667 25.6673 13.1667 24.3548 13.9792 23.5423L18.5 19.0215C19.3125 18.209 20.6458 18.209 21.4583 19.0215C22.2708 19.834 22.2708 21.1465 21.4583 21.959L18.3958 25.0007L21.4375 28.0423C22.25 28.8548 22.2708 30.1882 21.4583 31.0007ZM25 8.85482C24.1458 8.85482 23.4375 8.14648 23.4375 7.29232C23.4375 6.43815 24.1458 5.72982 25 5.72982C25.8542 5.72982 26.5625 6.43815 26.5625 7.29232C26.5625 8.14648 25.8542 8.85482 25 8.85482ZM28.5417 31.0007C27.7292 30.1882 27.7292 28.8757 28.5417 28.0632L31.6042 25.0007L28.5417 21.9382C27.7292 21.1257 27.7292 19.8132 28.5417 19.0007C29.3542 18.1882 30.6875 18.1882 31.5 19.0007L36.0208 23.5215C36.8333 24.334 36.8333 25.6465 36.0208 26.459L31.5 30.9798C30.6875 31.8132 29.3542 31.8132 28.5417 31.0007Z" fill="#204ECF"/>
</svg>
